<?xml version="1.0" encoding="iso-8859-1"?>
<!-- Generator: Adobe Illustrator 19.0.0, SVG Export Plug-In . SVG Version: 6.00 Build 0)  -->
<svg version="1.1" id="Capa_1" xmlns="http://www.w3.org/2000/svg" xmlns:xlink="http://www.w3.org/1999/xlink" x="0px" y="0px"
	 viewBox="0 0 512 512" style="enable-background:new 0 0 512 512;" xml:space="preserve">
<g>
	<path style="fill:#E4EAF8;" d="M256.621,306.332c-4.267,0-7.727-3.459-7.727-7.727V185.248c0-4.267,3.459-7.727,7.727-7.727
		c4.267,0,7.727,3.459,7.727,7.727v113.357C264.348,302.873,260.888,306.332,256.621,306.332z"/>
	<path style="fill:#E4EAF8;" d="M132.31,367.508c-2.081-3.726-0.747-8.433,2.979-10.514l112.658-62.914
		c3.725-2.08,8.433-0.747,10.514,2.979s0.747,8.433-2.979,10.514l-112.658,62.914C139.096,372.569,134.391,371.233,132.31,367.508z"
		/>
	<path style="fill:#E4EAF8;" d="M374.461,372.344c-1.282,0-2.582-0.319-3.778-0.993l-113.506-63.789
		c-3.72-2.091-5.041-6.801-2.95-10.521c2.09-3.721,6.801-5.043,10.521-2.95l113.506,63.789c3.72,2.091,5.041,6.801,2.95,10.521
		C379.786,370.925,377.163,372.344,374.461,372.344z"/>
	<path style="fill:#E4EAF8;" d="M110.784,342.974c-3.57-2.338-4.568-7.128-2.23-10.697l104.722-159.883
		c2.338-3.57,7.128-4.568,10.697-2.23c3.57,2.338,4.568,7.128,2.23,10.697L121.481,340.744
		C119.143,344.313,114.354,345.313,110.784,342.974z"/>
	<path style="fill:#E4EAF8;" d="M369.488,404.875H141.461c-4.267,0-7.727-3.459-7.727-7.727s3.459-7.727,7.727-7.727h228.027
		c4.267,0,7.727,3.459,7.727,7.727S373.755,404.875,369.488,404.875z"/>
	<path style="fill:#E4EAF8;" d="M397.312,344.316c-2.527,0-5.003-1.238-6.484-3.514L286.773,180.841
		c-2.327-3.577-1.313-8.364,2.264-10.691s8.363-1.313,10.691,2.264l104.055,159.961c2.327,3.577,1.313,8.364-2.264,10.691
		C400.217,343.912,398.756,344.316,397.312,344.316z"/>
</g>
<circle style="fill:#FFC850;" cx="256.62" cy="120.32" r="75.3"/>
<path style="fill:#F9B428;" d="M201.925,120.319c0-38.09,28.288-69.555,64.998-74.581c-3.37-0.462-6.805-0.72-10.302-0.72
	c-41.587,0-75.3,33.713-75.3,75.3s33.713,75.3,75.3,75.3c3.497,0,6.932-0.258,10.302-0.72
	C230.213,189.874,201.925,158.409,201.925,120.319z"/>
<path style="fill:#FF5050;" d="M273.211,134.208h-33.179c-9.575,0-17.409,7.834-17.409,17.409v35.906
	c10.213,5.177,21.764,8.097,33.998,8.097s23.785-2.92,33.998-8.097v-35.906C290.619,142.041,282.785,134.208,273.211,134.208z"/>
<path style="fill:#ED3A3A;" d="M243.228,151.616c0-9.575,7.834-17.409,17.409-17.409h-20.605c-9.575,0-17.409,7.834-17.409,17.409
	v35.906c6.397,3.243,13.319,5.6,20.605,6.908V151.616z"/>
<circle style="fill:#F0A479;" cx="256.62" cy="91.66" r="22.471"/>
<path style="fill:#E59770;" d="M254.755,91.657c0-8.696,4.943-16.232,12.169-19.968c-3.087-1.596-6.588-2.503-10.302-2.503
	c-12.41,0-22.471,10.06-22.471,22.471c0,12.41,10.061,22.471,22.471,22.471c3.715,0,7.216-0.907,10.302-2.503
	C259.698,107.889,254.755,100.352,254.755,91.657z"/>
<circle style="fill:#00AAF0;" cx="256.62" cy="300.83" r="22.722"/>
<path style="fill:#039ADD;" d="M254.504,300.827c0-8.839,5.05-16.493,12.419-20.25c-3.093-1.577-6.592-2.472-10.302-2.472
	c-12.549,0-22.722,10.173-22.722,22.722s10.173,22.722,22.722,22.722c3.71,0,7.209-0.895,10.302-2.472
	C259.555,317.32,254.504,309.666,254.504,300.827z"/>
<circle style="fill:#FFC850;" cx="436.7" cy="391.68" r="75.3"/>
<path style="fill:#F9B428;" d="M382.004,391.676c0-38.09,28.288-69.555,64.998-74.581c-3.37-0.462-6.805-0.72-10.302-0.72
	c-41.587,0-75.301,33.713-75.301,75.3c0,45.393,40.003,80.826,85.603,74.581C410.292,461.231,382.004,429.766,382.004,391.676z"/>
<path style="fill:#FF5050;" d="M453.289,405.565H420.11c-9.575,0-17.409,7.834-17.409,17.409v35.906
	c21.304,10.8,46.677,10.806,67.996,0v-35.906C470.697,413.398,462.863,405.565,453.289,405.565z"/>
<path style="fill:#ED3A3A;" d="M423.306,422.973c0-9.575,7.834-17.409,17.409-17.409H420.11c-9.575,0-17.409,7.834-17.409,17.409
	v35.906c6.397,3.243,13.319,5.6,20.605,6.908V422.973z"/>
<circle style="fill:#F0A479;" cx="436.7" cy="363.01" r="22.471"/>
<path style="fill:#E59770;" d="M434.833,363.014c0-8.696,4.943-16.232,12.169-19.968c-3.087-1.596-6.588-2.503-10.302-2.503
	c-12.41,0-22.471,10.06-22.471,22.471c0,12.41,10.061,22.471,22.471,22.471c3.715,0,7.216-0.907,10.302-2.503
	C439.776,379.246,434.833,371.709,434.833,363.014z"/>
<circle style="fill:#FFC850;" cx="75.3" cy="391.68" r="75.3"/>
<path style="fill:#F9B428;" d="M20.605,391.676c0-38.09,28.288-69.555,64.998-74.581c-3.37-0.462-6.805-0.72-10.302-0.72
	c-41.587,0-75.3,33.713-75.3,75.301s33.713,75.3,75.3,75.3c3.497,0,6.932-0.258,10.302-0.72
	C48.893,461.231,20.605,429.766,20.605,391.676z"/>
<path style="fill:#FF5050;" d="M91.89,405.565H58.711c-9.575,0-17.409,7.834-17.409,17.409v35.906
	c10.213,5.177,21.764,8.097,33.998,8.097s23.785-2.92,33.998-8.097v-35.906C109.299,413.398,101.465,405.565,91.89,405.565z"/>
<path style="fill:#ED3A3A;" d="M61.908,422.973c0-9.575,7.834-17.409,17.409-17.409H58.711c-9.575,0-17.409,7.834-17.409,17.409
	v35.906c6.397,3.243,13.319,5.6,20.605,6.908v-42.814H61.908z"/>
<circle style="fill:#F0A479;" cx="75.3" cy="363.01" r="22.471"/>
<path style="fill:#E59770;" d="M73.434,363.014c0-8.696,4.943-16.232,12.169-19.968c-3.087-1.596-6.588-2.503-10.302-2.503
	c-12.41,0-22.471,10.06-22.471,22.471c0,12.41,10.061,22.471,22.471,22.471c3.715,0,7.216-0.907,10.302-2.503
	C78.377,379.245,73.434,371.709,73.434,363.014z"/>
<g>
</g>
<g>
</g>
<g>
</g>
<g>
</g>
<g>
</g>
<g>
</g>
<g>
</g>
<g>
</g>
<g>
</g>
<g>
</g>
<g>
</g>
<g>
</g>
<g>
</g>
<g>
</g>
<g>
</g>
</svg>
