<?xml version="1.0" encoding="iso-8859-1"?>
<!-- Generator: Adobe Illustrator 19.0.0, SVG Export Plug-In . SVG Version: 6.00 Build 0)  -->
<svg xmlns="http://www.w3.org/2000/svg" xmlns:xlink="http://www.w3.org/1999/xlink" version="1.1" id="Layer_1" x="0px" y="0px" viewBox="0 0 512 512" style="enable-background:new 0 0 512 512;" xml:space="preserve" width="512px" height="512px">
<g>
	<g>
		<path d="M464.351,63.539h-12.692c-4.611,0-8.348,3.738-8.348,8.348s3.736,8.348,8.348,8.348h12.692    c4.61,0,8.348-3.738,8.348-8.348S468.962,63.539,464.351,63.539z" fill="#933EC5"/>
	</g>
</g>
<g>
	<g>
		<path d="M419.273,63.539h-12.692c-4.611,0-8.348,3.738-8.348,8.348s3.736,8.348,8.348,8.348h12.692    c4.61,0,8.348-3.738,8.348-8.348S423.885,63.539,419.273,63.539z" fill="#933EC5"/>
	</g>
</g>
<g>
	<g>
		<path d="M373.083,63.539h-12.692c-4.611,0-8.348,3.738-8.348,8.348s3.736,8.348,8.348,8.348h12.692    c4.61,0,8.348-3.738,8.348-8.348S377.694,63.539,373.083,63.539z" fill="#933EC5"/>
	</g>
</g>
<g>
	<g>
		<path d="M465.51,248.05V143.662c0-4.61-3.736-8.348-8.348-8.348H352.766c-0.06-0.001-0.121-0.001-0.182,0H54.84    c-4.61,0-8.348,3.738-8.348,8.348v104.482c0,4.61,3.738,8.348,8.348,8.348h402.323c0.288-0.001,0.574-0.017,0.857-0.045    c0.108-0.011,0.214-0.033,0.321-0.049c0.169-0.023,0.339-0.043,0.505-0.077c3.805-0.778,6.668-4.148,6.668-8.184    C465.514,248.109,465.51,248.08,465.51,248.05z M63.188,239.796v-87.787h286.036l87.796,87.787H63.188z M448.814,227.981    l-75.98-75.972h75.98V227.981z" fill="#933EC5"/>
	</g>
</g>
<g>
	<g>
		<path d="M231.5,278.797H52.531c-4.61,0-8.348,3.738-8.348,8.348v142.608c0,4.61,3.738,8.348,8.348,8.348H231.5    c4.61,0,8.348-3.738,8.348-8.348v-57.73c0.001-0.07,0.001-0.14,0-0.21v-84.668C239.848,282.534,236.111,278.797,231.5,278.797z     M223.153,295.492v56.268l-56.268-56.268H223.153z M223.154,421.405H60.878v0V295.492h82.397l79.879,79.879V421.405z" fill="#933EC5"/>
	</g>
</g>
<g>
	<g>
		<path d="M503.652,35.193H298.907H8.348C3.738,35.193,0,38.93,0,43.541v56.691v368.227c0,4.61,3.738,8.348,8.348,8.348h369.077    c4.611,0,8.348-3.738,8.348-8.348s-3.736-8.348-8.348-8.348H16.695V108.58h282.211h196.398v351.532h-67.506    c-4.611,0-8.348,3.738-8.348,8.348s3.736,8.348,8.348,8.348h75.854c4.611,0,8.348-3.738,8.348-8.348V100.232V43.541    C512,38.93,508.264,35.193,503.652,35.193z M290.559,91.884H16.695V51.888h273.864V91.884z M495.305,91.884h-188.05V51.888h188.05    V91.884z" fill="#933EC5"/>
	</g>
</g>
<g>
	<g>
		<path d="M323.47,282.976h-49.127c-4.611,0-8.348,3.738-8.348,8.348v49.069c0,4.61,3.736,8.348,8.348,8.348h49.127    c4.611,0,8.348-3.738,8.348-8.348v-49.069C331.818,286.714,328.082,282.976,323.47,282.976z M315.123,332.045h-32.432v-32.374    h32.432V332.045z" fill="#933EC5"/>
	</g>
</g>
<g>
	<g>
		<path d="M323.47,371.183h-49.127c-4.611,0-8.348,3.738-8.348,8.348v49.068c0,4.61,3.736,8.348,8.348,8.348h49.127    c4.611,0,8.348-3.738,8.348-8.348V379.53C331.818,374.92,328.08,371.183,323.47,371.183z M315.123,420.251h-32.432v-32.372h32.432    V420.251z" fill="#933EC5"/>
	</g>
</g>
<g>
	<g>
		<path d="M444.632,298.286H364.72c-4.611,0-8.348,3.738-8.348,8.348c0,4.61,3.736,8.348,8.348,8.348h79.911    c4.611,0,8.348-3.738,8.348-8.348C452.979,302.023,449.243,298.286,444.632,298.286z" fill="#933EC5"/>
	</g>
</g>
<g>
	<g>
		<path d="M444.632,327.113H364.72c-4.611,0-8.348,3.738-8.348,8.348s3.736,8.348,8.348,8.348h79.911    c4.611,0,8.348-3.738,8.348-8.348S449.243,327.113,444.632,327.113z" fill="#933EC5"/>
	</g>
</g>
<g>
	<g>
		<path d="M444.632,379.002H364.72c-4.611,0-8.348,3.738-8.348,8.348c0,4.61,3.736,8.348,8.348,8.348h79.911    c4.611,0,8.348-3.738,8.348-8.348C452.979,382.739,449.243,379.002,444.632,379.002z" fill="#933EC5"/>
	</g>
</g>
<g>
	<g>
		<path d="M444.632,407.829H364.72c-4.611,0-8.348,3.738-8.348,8.348s3.738,8.348,8.348,8.348h79.911    c4.611,0,8.348-3.738,8.348-8.348S449.243,407.829,444.632,407.829z" fill="#933EC5"/>
	</g>
</g>
<g>
	<g>
		<path d="M175.865,63.539H47.508c-4.61,0-8.348,3.738-8.348,8.348s3.738,8.348,8.348,8.348h128.358c4.61,0,8.348-3.738,8.348-8.348    C184.212,67.276,180.475,63.539,175.865,63.539z" fill="#933EC5"/>
	</g>
</g>
<g>
</g>
<g>
</g>
<g>
</g>
<g>
</g>
<g>
</g>
<g>
</g>
<g>
</g>
<g>
</g>
<g>
</g>
<g>
</g>
<g>
</g>
<g>
</g>
<g>
</g>
<g>
</g>
<g>
</g>
</svg>
