<?xml version="1.0" encoding="iso-8859-1"?>
<!-- Generator: Adobe Illustrator 19.0.0, SVG Export Plug-In . SVG Version: 6.00 Build 0)  -->
<svg version="1.1" id="Layer_1" xmlns="http://www.w3.org/2000/svg" xmlns:xlink="http://www.w3.org/1999/xlink" x="0px" y="0px"
	 viewBox="0 0 512 512" style="enable-background:new 0 0 512 512;" xml:space="preserve">
<path style="fill:#EFEFEF;" d="M512,94.976v371.439c0,5.083-4.121,9.204-9.204,9.204H9.204c-5.083,0-9.204-4.121-9.204-9.204V94.976
	H512z"/>
<rect y="94.976" style="fill:#E2E2E2;" width="512" height="44.894"/>
<path style="fill:#F95D48;" d="M461.561,149.074v89.604c0,2.531-1.035,4.832-2.704,6.501c-1.668,1.668-3.969,2.704-6.501,2.704
	H54.881c-5.085,0-9.204-4.13-9.204-9.204v-89.604c0-5.074,4.119-9.204,9.204-9.204h397.476
	C457.43,139.87,461.561,144.001,461.561,149.074z"/>
<path style="fill:#FF7258;" d="M461.561,149.074v89.604c0,2.531-1.035,4.832-2.704,6.501L353.548,139.87h98.808
	C457.43,139.87,461.561,144.001,461.561,149.074z"/>
<path style="fill:#FFDC65;" d="M230.682,297.401V426.4c0,5.085-4.119,9.204-9.204,9.204H54.881c-5.085,0-9.204-4.119-9.204-9.204
	V297.401c0-5.085,4.119-9.204,9.204-9.204h166.598C226.564,288.197,230.682,292.316,230.682,297.401z"/>
<path style="fill:#FFC846;" d="M230.682,297.401v78.421l-87.625-87.625h78.421C226.564,288.197,230.682,292.316,230.682,297.401z"/>
<path style="fill:#EFEFEF;" d="M502.796,36.381H9.21c-5.083,0-9.204,4.121-9.204,9.204v49.396H512V45.585
	C512,40.501,507.879,36.381,502.796,36.381z"/>
<g>
	<path style="fill:#FFDC65;" d="M316.542,434.413h-32.374c-5.083,0-9.204-4.121-9.204-9.204v-32.313
		c0-5.083,4.121-9.204,9.204-9.204h32.374c5.083,0,9.204,4.121,9.204,9.204v32.313C325.747,430.292,321.625,434.413,316.542,434.413
		z"/>
	<path style="fill:#FFDC65;" d="M316.542,343.234h-32.374c-5.083,0-9.204-4.121-9.204-9.204v-32.314
		c0-5.083,4.121-9.204,9.204-9.204h32.374c5.083,0,9.204,4.121,9.204,9.204v32.314C325.747,339.114,321.625,343.234,316.542,343.234
		z"/>
	<path style="fill:#FFDC65;" d="M450.991,316.966h-82.604c-4.767,0-8.629-3.863-8.629-8.629c0-4.766,3.862-8.629,8.629-8.629h82.604
		c4.767,0,8.629,3.863,8.629,8.629C459.62,313.103,455.756,316.966,450.991,316.966z"/>
	<path style="fill:#FFDC65;" d="M450.991,346.765h-82.604c-4.767,0-8.629-3.864-8.629-8.629s3.862-8.629,8.629-8.629h82.604
		c4.767,0,8.629,3.864,8.629,8.629S455.756,346.765,450.991,346.765z"/>
	<path style="fill:#FFDC65;" d="M450.991,400.402h-82.604c-4.767,0-8.629-3.863-8.629-8.629c0-4.766,3.862-8.629,8.629-8.629h82.604
		c4.767,0,8.629,3.863,8.629,8.629C459.62,396.539,455.756,400.402,450.991,400.402z"/>
	<path style="fill:#FFDC65;" d="M450.991,430.201h-82.604c-4.767,0-8.629-3.863-8.629-8.629c0-4.766,3.862-8.629,8.629-8.629h82.604
		c4.767,0,8.629,3.864,8.629,8.629C459.62,426.337,455.756,430.201,450.991,430.201z"/>
</g>
<path style="fill:#FF7258;" d="M471.373,74.309h-13.12c-4.767,0-8.629-3.864-8.629-8.629s3.862-8.629,8.629-8.629h13.12
	c4.767,0,8.629,3.864,8.629,8.629C480.002,70.446,476.14,74.309,471.373,74.309z"/>
<path style="fill:#FFDC65;" d="M424.777,74.309h-13.12c-4.767,0-8.629-3.864-8.629-8.629s3.862-8.629,8.629-8.629h13.12
	c4.767,0,8.629,3.864,8.629,8.629C433.406,70.446,429.543,74.309,424.777,74.309z"/>
<path style="fill:#72D54A;" d="M377.029,74.309h-13.12c-4.767,0-8.629-3.864-8.629-8.629s3.862-8.629,8.629-8.629h13.12
	c4.767,0,8.629,3.864,8.629,8.629C385.659,70.446,381.796,74.309,377.029,74.309z"/>
<path style="fill:#E2E2E2;" d="M173.167,74.309H40.484c-4.766,0-8.629-3.864-8.629-8.629s3.863-8.629,8.629-8.629h132.683
	c4.766,0,8.629,3.864,8.629,8.629C181.796,70.446,177.933,74.309,173.167,74.309z"/>
<g>
</g>
<g>
</g>
<g>
</g>
<g>
</g>
<g>
</g>
<g>
</g>
<g>
</g>
<g>
</g>
<g>
</g>
<g>
</g>
<g>
</g>
<g>
</g>
<g>
</g>
<g>
</g>
<g>
</g>
</svg>
