<?xml version="1.0" encoding="iso-8859-1"?>
<!-- Generator: Adobe Illustrator 19.0.0, SVG Export Plug-In . SVG Version: 6.00 Build 0)  -->
<svg xmlns="http://www.w3.org/2000/svg" xmlns:xlink="http://www.w3.org/1999/xlink" version="1.1" id="Capa_1" x="0px" y="0px" viewBox="0 0 512 512" style="enable-background:new 0 0 512 512;" xml:space="preserve" width="512px" height="512px">
<g>
	<g>
		<path d="M396,248.5h-43.75c-4.142,0-7.5,3.357-7.5,7.5s3.358,7.5,7.5,7.5H396c4.142,0,7.5-3.357,7.5-7.5S400.142,248.5,396,248.5z    " fill="#D80027"/>
	</g>
</g>
<g>
	<g>
		<path d="M176.991,166.384l-14.678-14.678c-2.929-2.928-7.678-2.928-10.606,0c-2.93,2.93-2.93,7.678,0,10.607l14.678,14.678    c1.464,1.464,3.384,2.196,5.303,2.196s3.839-0.732,5.303-2.196C179.92,174.061,179.92,169.313,176.991,166.384z" fill="#D80027"/>
	</g>
</g>
<g>
	<g>
		<path d="M360.293,349.687L319.5,308.893V294c0-11.048-2.841-21.442-7.823-30.5H320c4.142,0,7.5-3.357,7.5-7.5s-3.358-7.5-7.5-7.5    h-19.77c-4.476-4.352-9.589-8.047-15.185-10.939l75.248-75.248c2.929-2.93,2.929-7.678,0-10.607    c-2.929-2.928-7.678-2.928-10.606,0l-48.19,48.19c-0.051-22.487-16.5-41.185-37.997-44.767V116c0-4.143-3.358-7.5-7.5-7.5    c-4.142,0-7.5,3.357-7.5,7.5v39.129c-21.498,3.582-37.946,22.28-37.997,44.767l-13.137-13.137c-2.929-2.928-7.678-2.928-10.606,0    c-2.929,2.93-2.929,7.678,0,10.607l40.195,40.195c-5.596,2.892-10.709,6.587-15.185,10.939H116c-4.142,0-7.5,3.357-7.5,7.5    s3.358,7.5,7.5,7.5h84.323c-4.982,9.058-7.823,19.452-7.823,30.5v14.893l-40.793,40.793c-2.929,2.93-2.929,7.678,0,10.607    c1.464,1.464,3.384,2.196,5.303,2.196s3.839-0.732,5.303-2.196l30.187-30.187V350c0,4.143,3.358,7.5,7.5,7.5h12    c4.142,0,7.5-3.357,7.5-7.5s-3.358-7.5-7.5-7.5h-4.5V294c0-26.743,21.757-48.5,48.5-48.5s48.5,21.757,48.5,48.5v48.5h-60.667    c-4.142,0-7.5,3.357-7.5,7.5s3.358,7.5,7.5,7.5h4.667V396c0,4.143,3.358,7.5,7.5,7.5c4.142,0,7.5-3.357,7.5-7.5v-38.5H312    c4.142,0,7.5-3.357,7.5-7.5v-19.893l30.187,30.187c1.464,1.464,3.384,2.196,5.303,2.196s3.839-0.732,5.303-2.196    C363.223,357.364,363.223,352.616,360.293,349.687z M256,230.5c-16.818,0-30.5-13.683-30.5-30.5s13.682-30.5,30.5-30.5    s30.5,13.683,30.5,30.5S272.818,230.5,256,230.5z" fill="#D80027"/>
	</g>
</g>
<g>
	<g>
		<path d="M256,0c-25.089,0-45.5,20.411-45.5,45.5S230.911,91,256,91s45.5-20.411,45.5-45.5S281.089,0,256,0z M256,76    c-16.818,0-30.5-13.683-30.5-30.5S239.182,15,256,15s30.5,13.683,30.5,30.5S272.818,76,256,76z" fill="#D80027"/>
	</g>
</g>
<g>
	<g>
		<path d="M256,421c-25.089,0-45.5,20.411-45.5,45.5S230.911,512,256,512s45.5-20.411,45.5-45.5S281.089,421,256,421z M256,497    c-16.818,0-30.5-13.683-30.5-30.5c0-16.817,13.682-30.5,30.5-30.5s30.5,13.683,30.5,30.5C286.5,483.317,272.818,497,256,497z" fill="#D80027"/>
	</g>
</g>
<g>
	<g>
		<path d="M437.019,74.98c-17.741-17.74-46.606-17.74-64.346,0c-17.741,17.741-17.741,46.606,0,64.348    c8.87,8.87,20.521,13.305,32.173,13.305c11.651,0,23.303-4.435,32.173-13.305c8.594-8.594,13.327-20.021,13.327-32.174    S445.613,83.574,437.019,74.98z M426.412,128.72c-11.891,11.892-31.241,11.894-43.133,0c-11.892-11.891-11.892-31.241,0-43.132    c5.946-5.946,13.756-8.919,21.566-8.919c7.811,0,15.621,2.973,21.567,8.919c5.761,5.761,8.934,13.42,8.934,21.566    S432.173,122.96,426.412,128.72z" fill="#D80027"/>
	</g>
</g>
<g>
	<g>
		<path d="M139.327,372.672c-17.74-17.739-46.605-17.741-64.346,0c-8.594,8.594-13.327,20.021-13.327,32.174    s4.733,23.58,13.327,32.174c8.87,8.87,20.521,13.305,32.173,13.305c11.652,0,23.303-4.435,32.173-13.305    C157.068,419.279,157.068,390.414,139.327,372.672z M128.721,426.412c-11.892,11.894-31.242,11.894-43.133,0    c-5.761-5.761-8.934-13.42-8.934-21.566s3.173-15.806,8.934-21.566c5.946-5.946,13.756-8.919,21.567-8.919    c7.81,0,15.621,2.973,21.566,8.919C140.613,395.171,140.613,414.521,128.721,426.412z" fill="#D80027"/>
	</g>
</g>
<g>
	<g>
		<path d="M466.5,210.5c-25.089,0-45.5,20.411-45.5,45.5s20.411,45.5,45.5,45.5S512,281.089,512,256S491.589,210.5,466.5,210.5z     M466.5,286.5c-16.818,0-30.5-13.683-30.5-30.5c0-16.817,13.682-30.5,30.5-30.5S497,239.183,497,256S483.318,286.5,466.5,286.5z" fill="#D80027"/>
	</g>
</g>
<g>
	<g>
		<path d="M45.5,210.5C20.411,210.5,0,230.911,0,256s20.411,45.5,45.5,45.5S91,281.089,91,256S70.589,210.5,45.5,210.5z M45.5,286.5    C28.682,286.5,15,272.817,15,256c0-16.817,13.682-30.5,30.5-30.5S76,239.183,76,256S62.318,286.5,45.5,286.5z" fill="#D80027"/>
	</g>
</g>
<g>
	<g>
		<path d="M437.019,372.672c-17.741-17.741-46.606-17.739-64.346,0c-17.741,17.741-17.741,46.606,0,64.348    c8.871,8.871,20.52,13.305,32.173,13.305c11.65,0,23.304-4.436,32.173-13.305c8.594-8.594,13.327-20.021,13.327-32.174    S445.613,381.266,437.019,372.672z M426.413,426.412c-11.891,11.893-31.241,11.893-43.133,0    c-11.892-11.892-11.892-31.241,0-43.133c5.946-5.946,13.756-8.919,21.566-8.919c7.811,0,15.621,2.973,21.567,8.919    c5.761,5.761,8.934,13.42,8.934,21.566S432.173,420.651,426.413,426.412z" fill="#D80027"/>
	</g>
</g>
<g>
	<g>
		<path d="M139.327,74.98c-17.74-17.739-46.605-17.741-64.346,0c-8.594,8.594-13.327,20.021-13.327,32.174    s4.733,23.58,13.327,32.174c8.87,8.87,20.521,13.305,32.173,13.305c11.652,0,23.303-4.435,32.173-13.305    C157.068,121.587,157.068,92.722,139.327,74.98z M128.72,128.721c-11.892,11.894-31.242,11.893-43.133,0    c-5.761-5.761-8.934-13.42-8.934-21.566s3.174-15.806,8.934-21.567c5.946-5.946,13.756-8.919,21.567-8.919    c7.81,0,15.621,2.973,21.566,8.919C140.612,97.48,140.612,116.829,128.72,128.721z" fill="#D80027"/>
	</g>
</g>
<g>
	<g>
		<path d="M279.48,451.224c-1.343-2.306-3.811-3.724-6.48-3.724h-34c-2.669,0-5.136,1.418-6.48,3.724    c-1.344,2.306-1.361,5.152-0.045,7.474l17,30c1.332,2.351,3.824,3.803,6.525,3.803s5.193-1.452,6.525-3.803l17-30    C280.84,456.377,280.823,453.53,279.48,451.224z M256,469.787l-4.129-7.287h8.259L256,469.787z" fill="#D80027"/>
	</g>
</g>
<g>
	<g>
		<path d="M279.525,54.302l-17-30c-1.332-2.351-3.824-3.803-6.525-3.803s-5.193,1.452-6.525,3.803l-17,30    c-1.315,2.321-1.298,5.168,0.045,7.474c1.343,2.306,3.811,3.724,6.48,3.724h34c2.669,0,5.136-1.418,6.48-3.724    C280.824,59.47,280.841,56.624,279.525,54.302z M251.87,50.5l4.13-7.287l4.129,7.287H251.87z" fill="#D80027"/>
	</g>
</g>
<g>
	<g>
		<path d="M132.965,403.579l-24.042-24.042c-1.888-1.888-4.634-2.633-7.216-1.949c-2.581,0.68-4.605,2.681-5.316,5.253    l-9.192,33.234c-0.72,2.603,0.015,5.393,1.925,7.303c1.426,1.425,3.341,2.196,5.304,2.196c0.667,0,1.339-0.089,1.999-0.271    l33.234-9.192c2.572-0.711,4.572-2.736,5.253-5.316C135.594,408.214,134.852,405.467,132.965,403.579z M105.183,407.317    l2.233-8.073l5.84,5.84L105.183,407.317z" fill="#D80027"/>
	</g>
</g>
<g>
	<g>
		<path d="M422.877,89.622c-1.91-1.909-4.699-2.646-7.303-1.925L382.34,96.89c-2.572,0.711-4.572,2.736-5.253,5.316    c-0.68,2.581,0.062,5.328,1.949,7.216l24.042,24.042c1.425,1.425,3.34,2.196,5.304,2.196c0.637,0,1.279-0.081,1.912-0.248    c2.581-0.68,4.605-2.681,5.316-5.253l9.192-33.234C425.522,94.322,424.787,91.532,422.877,89.622z M404.584,113.756l-5.84-5.84    l8.073-2.233L404.584,113.756z" fill="#D80027"/>
	</g>
</g>
<g>
	<g>
		<path d="M61.276,233.02c-2.305-1.344-5.151-1.361-7.474-0.045l-30,17C21.453,251.307,20,253.799,20,256.5s1.453,5.193,3.802,6.525    l30,17C54.95,280.676,56.225,281,57.5,281c1.305,0,2.61-0.341,3.776-1.02c2.306-1.344,3.724-3.812,3.724-6.48v-34    C65,236.831,63.582,234.363,61.276,233.02z M50,260.63l-7.288-4.13L50,252.37V260.63z" fill="#D80027"/>
	</g>
</g>
<g>
	<g>
		<path d="M488.198,249.975l-30-17c-2.322-1.317-5.168-1.297-7.474,0.045c-2.306,1.344-3.724,3.812-3.724,6.48v34    c0,2.669,1.418,5.137,3.724,6.48c1.166,0.68,2.471,1.02,3.776,1.02c1.275,0,2.55-0.324,3.698-0.975l30-17    c2.35-1.332,3.802-3.824,3.802-6.525S490.547,251.307,488.198,249.975z M462,260.63v-8.26l7.288,4.13L462,260.63z" fill="#D80027"/>
	</g>
</g>
<g>
	<g>
		<path d="M134.913,102.206c-0.681-2.58-2.681-4.605-5.253-5.316l-33.234-9.192c-2.602-0.719-5.393,0.016-7.303,1.925    c-1.91,1.91-2.646,4.7-1.925,7.303l9.192,33.233c0.711,2.572,2.736,4.573,5.316,5.253c0.632,0.167,1.274,0.248,1.912,0.248    c1.964,0,3.879-0.772,5.304-2.196l24.042-24.042C134.851,107.534,135.593,104.787,134.913,102.206z M107.416,113.756l-2.233-8.073    l8.073,2.233L107.416,113.756z" fill="#D80027"/>
	</g>
</g>
<g>
	<g>
		<path d="M424.803,416.074l-9.193-33.233c-0.711-2.572-2.736-4.573-5.316-5.253c-2.582-0.684-5.328,0.063-7.215,1.948    l-24.042,24.042c-1.887,1.888-2.629,4.635-1.949,7.216c0.681,2.58,2.681,4.605,5.253,5.316l33.234,9.192    c0.66,0.183,1.332,0.271,1.999,0.271c1.962,0,3.878-0.771,5.304-2.196C424.788,421.467,425.524,418.677,424.803,416.074z     M398.744,405.084l5.84-5.84l2.233,8.073L398.744,405.084z" fill="#D80027"/>
	</g>
</g>
<g>
</g>
<g>
</g>
<g>
</g>
<g>
</g>
<g>
</g>
<g>
</g>
<g>
</g>
<g>
</g>
<g>
</g>
<g>
</g>
<g>
</g>
<g>
</g>
<g>
</g>
<g>
</g>
<g>
</g>
</svg>
