<?xml version="1.0" encoding="iso-8859-1"?>
<!-- Generator: Adobe Illustrator 19.0.0, SVG Export Plug-In . SVG Version: 6.00 Build 0)  -->
<svg version="1.1" id="Capa_1" xmlns="http://www.w3.org/2000/svg" xmlns:xlink="http://www.w3.org/1999/xlink" x="0px" y="0px"
	 viewBox="0 0 512 512" style="enable-background:new 0 0 512 512;" xml:space="preserve">
<path style="fill:#575C61;" d="M400.226,248.5H274.107l89.179-89.179c2.929-2.93,2.929-7.678,0-10.607
	c-2.929-2.928-7.678-2.928-10.606,0l-89.18,89.179V111.774c0-4.143-3.358-7.5-7.5-7.5s-7.5,3.357-7.5,7.5v126.119l-89.18-89.179
	c-2.929-2.928-7.678-2.928-10.606,0c-2.929,2.93-2.929,7.678,0,10.607l89.179,89.179H111.774c-4.142,0-7.5,3.357-7.5,7.5
	s3.358,7.5,7.5,7.5h126.119l-89.179,89.179c-2.929,2.93-2.929,7.678,0,10.607c1.464,1.464,3.384,2.196,5.303,2.196
	c1.919,0,3.839-0.732,5.303-2.196l89.18-89.179v126.119c0,4.143,3.358,7.5,7.5,7.5s7.5-3.357,7.5-7.5V274.107l89.18,89.179
	c1.464,1.464,3.384,2.196,5.303,2.196s3.839-0.732,5.303-2.196c2.929-2.93,2.929-7.678,0-10.607L274.107,263.5h126.119
	c4.142,0,7.5-3.357,7.5-7.5S404.368,248.5,400.226,248.5z"/>
<g>
	<circle style="fill:#FF993B;" cx="256" cy="39.15" r="39.15"/>
	<circle style="fill:#FF993B;" cx="256" cy="472.85" r="39.15"/>
</g>
<g>
	<circle style="fill:#FF5A51;" cx="409.34" cy="102.66" r="39.15"/>
	<circle style="fill:#FF5A51;" cx="102.66" cy="409.34" r="39.15"/>
</g>
<g>
	<circle style="fill:#FF993B;" cx="472.85" cy="256" r="39.15"/>
	<circle style="fill:#FF993B;" cx="39.15" cy="256" r="39.15"/>
</g>
<g>
	<circle style="fill:#FF5A51;" cx="409.34" cy="409.34" r="39.15"/>
	<circle style="fill:#FF5A51;" cx="102.66" cy="102.66" r="39.15"/>
</g>
<g>
	<path style="fill:#FF7B48;" d="M268.365,461.006h-24.73c-2.299,0-3.743,2.479-2.61,4.479l12.365,21.82
		c1.149,2.028,4.071,2.028,5.22,0l12.365-21.82C272.108,463.485,270.664,461.006,268.365,461.006z"/>
	<path style="fill:#FF7B48;" d="M243.635,52.024h24.73c2.299,0,3.743-2.479,2.61-4.479l-12.365-21.82
		c-1.149-2.028-4.071-2.028-5.22,0l-12.365,21.82C239.892,49.545,241.336,52.024,243.635,52.024z"/>
</g>
<g>
	<path style="fill:#A85759;" d="M120.146,409.855l-17.487-17.487c-1.625-1.625-4.4-0.894-5.013,1.322l-6.686,24.173
		c-0.621,2.247,1.445,4.313,3.691,3.691l24.173-6.686C121.04,414.255,121.772,411.481,120.146,409.855z"/>
	<path style="fill:#A85759;" d="M391.854,103.175l17.487,17.487c1.625,1.625,4.4,0.894,5.013-1.322l6.686-24.173
		c0.621-2.247-1.445-4.313-3.691-3.691l-24.173,6.686C390.96,98.775,390.228,101.549,391.854,103.175z"/>
</g>
<g>
	<path style="fill:#FF7B48;" d="M51.509,268.88v-24.73c0-2.299-2.479-3.743-4.479-2.61l-21.82,12.365
		c-2.028,1.149-2.028,4.071,0,5.22l21.82,12.365C49.03,272.623,51.509,271.179,51.509,268.88z"/>
	<path style="fill:#FF7B48;" d="M460.491,244.15v24.73c0,2.299,2.479,3.743,4.479,2.61l21.82-12.365c2.028-1.149,2.028-4.071,0-5.22
		l-21.82-12.365C462.97,240.407,460.491,241.852,460.491,244.15z"/>
</g>
<g>
	<path style="fill:#A85759;" d="M102.66,120.661l17.487-17.487c1.625-1.625,0.894-4.4-1.322-5.013l-24.173-6.686
		c-2.247-0.621-4.313,1.445-3.691,3.691l6.686,24.173C98.26,121.555,101.034,122.287,102.66,120.661z"/>
	<path style="fill:#A85759;" d="M409.34,392.369l-17.487,17.487c-1.625,1.625-0.894,4.4,1.322,5.013l24.173,6.686
		c2.247,0.621,4.313-1.445,3.691-3.691l-6.686-24.173C413.74,391.475,410.966,390.743,409.34,392.369z"/>
</g>
<circle style="fill:#FFD681;" cx="256" cy="198.31" r="39.15"/>
<path style="fill:#FFBD2A;" d="M256,159.163c-5.489,0-10.711,1.134-15.453,3.174c13.935,5.994,23.694,19.842,23.694,35.973
	s-9.76,29.979-23.694,35.973c4.741,2.039,9.964,3.174,15.453,3.174c21.62,0,39.147-17.527,39.147-39.147S277.62,159.163,256,159.163
	z"/>
<path style="fill:#0087D5;" d="M307.69,352.837H204.31c-3.314,0-6-2.686-6-6v-51.69c0-31.861,25.829-57.69,57.69-57.69l0,0
	c31.861,0,57.69,25.829,57.69,57.69v51.69C313.69,350.151,311.004,352.837,307.69,352.837z"/>
<path style="fill:#006ECB;" d="M256,237.457L256,237.457c-5.355,0-10.533,0.745-15.453,2.11
	c24.355,6.758,42.237,29.073,42.237,55.58v57.69h24.905c3.314,0,6-2.686,6-6v-51.69C313.69,263.285,287.861,237.457,256,237.457z"/>
<g>
</g>
<g>
</g>
<g>
</g>
<g>
</g>
<g>
</g>
<g>
</g>
<g>
</g>
<g>
</g>
<g>
</g>
<g>
</g>
<g>
</g>
<g>
</g>
<g>
</g>
<g>
</g>
<g>
</g>
</svg>
