<?xml version="1.0" encoding="iso-8859-1"?>
<!-- Generator: Adobe Illustrator 19.0.0, SVG Export Plug-In . SVG Version: 6.00 Build 0)  -->
<svg xmlns="http://www.w3.org/2000/svg" xmlns:xlink="http://www.w3.org/1999/xlink" version="1.1" id="Capa_1" x="0px" y="0px" viewBox="0 0 512 512" style="enable-background:new 0 0 512 512;" xml:space="preserve" width="512px" height="512px">
<g>
	<g>
		<path d="M504.5,304.24h-58.549c-2.043,0-3.705-1.662-3.705-3.705V140.172c0-2.043,1.662-3.705,3.705-3.705H504.5    c4.143,0,7.5-3.357,7.5-7.5s-3.357-7.5-7.5-7.5h-58.549c-10.314,0-18.705,8.391-18.705,18.705v8.477h-36.867    c-4.143,0-7.5,3.357-7.5,7.5s3.357,7.5,7.5,7.5h36.863v113.41h-34.6c-1.893,0-3.715,0.716-5.102,2.003l-62.4,57.914    c-3.036,2.817-3.214,7.563-0.396,10.599c1.478,1.593,3.485,2.398,5.499,2.398c1.825,0,3.656-0.663,5.1-2.003l60.243-55.911h31.659    v8.477c0,10.314,8.391,18.705,18.705,18.705h58.55c4.143,0,7.5-3.357,7.5-7.5S508.643,304.24,504.5,304.24z" fill="#006DF0"/>
	</g>
</g>
<g>
	<g>
		<path d="M371.933,164.598l-99.425-69.253c-1.258-0.876-2.753-1.346-4.286-1.346h-75.531c-5.717,0-11.202,1.745-15.852,5.04    l-13.261,9.369c-3.383,2.39-4.188,7.069-1.798,10.453c2.392,3.382,7.071,4.189,10.453,1.797l13.27-9.375    c2.109-1.494,4.595-2.284,7.188-2.284h73.177l95.938,66.824l-3.761,5.361c-10.838,15.456-32.421,19.484-48.13,8.971    l-43.453-28.891c-0.03-0.02-0.062-0.031-0.092-0.051c-0.037-0.022-0.074-0.04-0.111-0.061c-2.841-1.767-6.52-1.451-9.005,0.817    l-95.995,87.609c-0.011,0.01-0.021,0.022-0.032,0.033l-39.738,36.114c-2.042,1.9-3.745,4.027-5.124,6.303    c-0.602-8.427-7.589-14.971-16.116-14.971H84.754V163.642h22.8c-0.201,0.837-0.383,1.681-0.544,2.532    c-0.767,4.07,1.912,7.991,5.982,8.758c0.469,0.089,0.936,0.131,1.396,0.131c3.536,0,6.684-2.512,7.362-6.113    c0.604-3.207,1.626-6.27,3.008-9.14c0.151-0.269,0.286-0.547,0.404-0.835c2.658-5.175,6.539-9.668,11.406-13.11l10.259-7.249    c3.383-2.391,4.188-7.07,1.797-10.453c-2.39-3.383-7.071-4.187-10.453-1.797l-10.261,7.25    c-5.753,4.068-10.517,9.184-14.119,15.026H84.754v-8.47c0-10.314-8.391-18.705-18.705-18.705H7.5c-4.142,0-7.5,3.357-7.5,7.5    s3.358,7.5,7.5,7.5h58.549c2.042,0,3.705,1.662,3.705,3.705v15.892c0,0.026-0.004,0.051-0.004,0.077v128.42    c0,0.026,0.004,0.051,0.004,0.077v15.896c0,2.043-1.662,3.705-3.705,3.705H7.5c-4.142,0-7.5,3.357-7.5,7.5s3.358,7.5,7.5,7.5    h58.549c10.314,0,18.705-8.391,18.705-18.705v-8.474h15.498c0.619,0,1.145,0.481,1.171,1.073    c0.302,6.72,1.194,26.431,14.368,28.509c1.14,2.058,2.541,4.013,4.214,5.811c4.983,5.346,11.727,8.592,18.858,9.256    c-0.402,1.789-0.64,3.629-0.706,5.502c-0.275,7.877,2.539,15.389,7.913,21.138c5.372,5.772,12.668,9.105,20.546,9.385    c4.571,0.166,9.019-0.714,13.074-2.527c0.968,5.589,3.534,10.785,7.492,15.034c5.375,5.771,12.674,9.103,20.554,9.38    c3.94,0.143,7.778-0.491,11.356-1.826c0.857,5.889,3.478,11.369,7.621,15.808c5.375,5.77,12.674,9.101,20.553,9.379    c0.356,0.013,0.711,0.019,1.067,0.019c7.488,0,14.587-2.791,20.079-7.913l44.36-41.17c3.036-2.817,3.214-7.563,0.396-10.599    c-2.817-3.036-7.564-3.213-10.6-0.395l-44.374,41.182c-9.415,8.783-24.855,1.731-24.403-11.134    c0.136-3.869,1.771-7.454,4.603-10.096l0.015-0.015c3.032-2.821,3.203-7.567,0.381-10.6c-2.822-3.033-7.568-3.202-10.6-0.382    c0,0,0,0,0,0.001l-9.526,8.864c-9.422,8.786-24.85,1.725-24.399-11.141c0.136-3.873,1.774-7.46,4.612-10.102l0.002-0.002    c3.032-2.821,3.203-7.567,0.381-10.6c-2.821-3.033-7.567-3.202-10.6-0.382c-0.012,0.011-0.023,0.022-0.035,0.033l-11.071,10.303    c-9.401,8.767-24.857,1.777-24.408-11.119c0.135-3.876,1.776-7.468,4.633-10.125l3.928-3.671c0.006-0.005,0.012-0.011,0.018-0.017    l0.004-0.003c3.025-2.827,3.188-7.572,0.361-10.599c-2.828-3.027-7.572-3.19-10.599-0.365c-2.179,2.033-4.892,3.325-7.86,3.737    c-4.698,0.664-9.432-1.008-12.652-4.462c-5.457-5.865-5.13-15.071,0.663-20.462l131.622-119.616l38.327,25.482    c10.922,7.311,24.054,10.008,36.98,7.598c12.929-2.413,24.206-9.67,31.754-20.433l4.84-6.898    C379.318,176.968,377.877,168.764,371.933,164.598z" fill="#006DF0"/>
	</g>
</g>
<g>
</g>
<g>
</g>
<g>
</g>
<g>
</g>
<g>
</g>
<g>
</g>
<g>
</g>
<g>
</g>
<g>
</g>
<g>
</g>
<g>
</g>
<g>
</g>
<g>
</g>
<g>
</g>
<g>
</g>
</svg>
