<?xml version="1.0" encoding="iso-8859-1"?>
<!-- Generator: Adobe Illustrator 19.0.0, SVG Export Plug-In . SVG Version: 6.00 Build 0)  -->
<svg version="1.1" id="Capa_1" xmlns="http://www.w3.org/2000/svg" xmlns:xlink="http://www.w3.org/1999/xlink" x="0px" y="0px"
	 viewBox="0 0 511.999 511.999" style="enable-background:new 0 0 511.999 511.999;" xml:space="preserve">
<circle style="fill:#FFD4B0;" cx="132.395" cy="88.264" r="35.305"/>
<g>
	<path style="fill:#235087;" d="M176.562,273.617H88.298L42.34,480.41c-3.107,13.963,5.693,27.794,19.656,30.901
		c1.845,0.415,3.725,0.618,5.622,0.618l0,0c12.092,0,22.578-8.367,25.261-20.159l39.551-174.021l39.542,174.021
		c3.133,13.954,16.991,22.728,30.945,19.595c13.954-3.133,22.728-16.991,19.595-30.954L176.562,273.617z"/>
	<path style="fill:#235087;" d="M289.487,480.41c-3.045,13.972,5.817,27.768,19.789,30.822c13.849,3.019,27.547-5.649,30.742-19.462
		l39.551-174.021L419.12,491.77c3.23,13.937,17.141,22.613,31.069,19.383c13.804-3.195,22.481-16.902,19.462-30.742L423.7,273.617
		h-88.264L289.487,480.41z"/>
</g>
<polygon style="fill:#4DB5FF;" points="456.799,44.132 432.527,141.222 379.569,158.875 326.61,141.222 302.338,44.132 
	264.826,44.132 291.305,176.527 335.437,203.007 335.437,273.617 423.7,273.617 423.7,203.007 467.832,176.527 494.311,44.132 "/>
<g>
	<path style="fill:#FFD4B0;" d="M251.78,21.113c1.906-9.559-4.29-18.862-13.849-20.768C236.784,0.115,235.628,0,234.472,0l0,0
		c-8.094,0-15.155,5.508-17.123,13.363l-7.697,30.769h37.521L251.78,21.113z"/>
	<path style="fill:#FFD4B0;" d="M47.503,13.363C45.535,5.508,38.474,0,30.38,0l0,0c-9.753,0.009-17.653,7.917-17.644,17.662
		c0,1.156,0.115,2.313,0.344,3.451l4.607,23.019H55.2L47.503,13.363z"/>
</g>
<polygon style="fill:#EF2648;" points="209.652,44.132 185.388,141.222 132.43,158.875 79.472,141.222 55.2,44.132 17.679,44.132 
	44.167,176.527 88.298,203.007 88.298,273.617 176.562,273.617 176.562,203.007 220.694,176.527 247.173,44.132 "/>
<g>
	<path style="fill:#FFD4B0;" d="M294.65,13.363c-2.471-9.435-12.119-15.075-21.545-12.604c-8.976,2.348-14.599,11.245-12.878,20.354
		l4.599,23.019h37.512L294.65,13.363z"/>
	<path style="fill:#FFD4B0;" d="M498.919,21.113c1.906-9.559-4.29-18.862-13.849-20.768C483.932,0.115,482.775,0,481.619,0l0,0
		c-8.094,0-15.155,5.508-17.123,13.363l-7.697,30.769h37.512L498.919,21.113z"/>
</g>
<g>
	<path style="fill:#163768;" d="M171.972,491.77c3.133,13.954,16.991,22.728,30.945,19.595
		c13.954-3.133,22.728-16.991,19.595-30.954l-20.751-93.383c-16.514,5.667-33.302,10.477-50.31,14.422L171.972,491.77z"/>
	<path style="fill:#163768;" d="M42.34,480.41c-3.107,13.963,5.693,27.794,19.656,30.901c1.845,0.415,3.725,0.618,5.622,0.618l0,0
		c12.092,0,22.578-8.367,25.261-20.159l18.774-82.624c-18.103,2.692-36.329,4.404-54.618,5.146L42.34,480.41z"/>
	<path style="fill:#163768;" d="M423.7,273.617h-35.517c-20.009,19.091-41.528,36.541-64.344,52.173l-34.352,154.62
		c-3.045,13.972,5.817,27.768,19.789,30.822c13.849,3.019,27.547-5.649,30.742-19.462l39.551-174.021L419.12,491.77
		c3.23,13.937,17.141,22.613,31.069,19.383c13.804-3.195,22.481-16.902,19.462-30.742L423.7,273.617z"/>
</g>
<path style="fill:#3596D8;" d="M388.183,273.617H423.7v-37.371C412.491,249.292,400.637,261.764,388.183,273.617z"/>
<path style="fill:#EDC4A2;" d="M152.572,59.322c11.13,15.976,7.211,37.945-8.765,49.075c-12.127,8.456-28.236,8.447-40.345-0.018
	c11.015,16.09,32.993,20.195,49.075,9.179c16.09-11.015,20.195-32.993,9.179-49.075C159.254,64.891,156.156,61.785,152.572,59.322z"
	/>
<circle style="fill:#FFD4B0;" cx="379.533" cy="88.264" r="35.305"/>
<path style="fill:#EDC4A2;" d="M399.71,59.322c11.13,15.976,7.211,37.945-8.765,49.075c-12.127,8.456-28.236,8.447-40.345-0.018
	c11.015,16.09,32.993,20.195,49.075,9.179s20.195-32.993,9.179-49.075C406.392,64.891,403.294,61.785,399.71,59.322z"/>
<g>
</g>
<g>
</g>
<g>
</g>
<g>
</g>
<g>
</g>
<g>
</g>
<g>
</g>
<g>
</g>
<g>
</g>
<g>
</g>
<g>
</g>
<g>
</g>
<g>
</g>
<g>
</g>
<g>
</g>
</svg>
