<?xml version="1.0" encoding="iso-8859-1"?>
<!-- Generator: Adobe Illustrator 19.0.0, SVG Export Plug-In . SVG Version: 6.00 Build 0)  -->
<svg xmlns="http://www.w3.org/2000/svg" xmlns:xlink="http://www.w3.org/1999/xlink" version="1.1" id="Capa_1" x="0px" y="0px" viewBox="0 0 480.084 480.084" style="enable-background:new 0 0 480.084 480.084;" xml:space="preserve" width="512px" height="512px">
<g>
	<g>
		<path d="M351.997,48c-22.091,0-40,17.909-40,40s17.909,40,40,40c22.08-0.026,39.974-17.92,40-40    C391.997,65.909,374.089,48,351.997,48z M351.997,112c-13.255,0-24-10.745-24-24s10.745-24,24-24s24,10.745,24,24    S365.252,112,351.997,112z" fill="#458219"/>
	</g>
</g>
<g>
	<g>
		<path d="M436.117,174.856c1.929-1.161,3.279-3.08,3.72-5.288l28.16-140.864c2.598-12.998-5.833-25.641-18.83-28.238    c-1.542-0.308-3.11-0.464-4.682-0.466c-11.011,0.001-20.608,7.495-23.28,18.176L393.301,129.8l-41.304,13.768L310.693,129.8    L282.789,18.176c-3.229-12.856-16.268-20.66-29.123-17.431c-4.99,1.253-9.445,4.077-12.709,8.055    c-0.376,0.456-0.624,0.984-0.96,1.464c-0.336-0.48-0.576-1.008-0.952-1.464c-8.405-10.249-23.527-11.744-33.776-3.34    c-3.985,3.268-6.812,7.732-8.064,12.732L169.301,129.8l-41.304,13.768L86.685,129.8L58.781,18.176    C55.308,5.384,42.122-2.169,29.331,1.304c-12.006,3.26-19.53,15.155-17.333,27.4L40.149,169.6    c0.443,2.209,1.796,4.129,3.728,5.288l36.12,21.64v58.6L38.533,441.704c-3.811,16.96,6.848,33.797,23.808,37.608    c16.96,3.811,33.797-6.848,37.608-23.808l28.048-123.408l28,123.408c3.811,16.96,20.648,27.619,37.608,23.808    c16.96-3.811,27.619-20.648,23.808-37.608l-41.416-186.576v-58.6l36.112-21.672c1.932-1.159,3.285-3.079,3.728-5.288L239.997,48.8    l24.16,120.8c0.441,2.208,1.791,4.127,3.72,5.288l36.12,21.64v58.6l-41.464,186.576c-3.811,16.96,6.848,33.797,23.808,37.608    c16.96,3.811,33.797-6.848,37.608-23.808l28.048-123.408l28.048,123.408c3.811,16.96,20.648,27.619,37.608,23.808    c16.96-3.811,27.619-20.648,23.808-37.608l-41.464-186.576v-58.6L436.117,174.856z M228.325,25.56l-27.488,137.4l-36.96,22.184    c-2.407,1.446-3.879,4.048-3.88,6.856v64c-0.003,0.584,0.059,1.166,0.184,1.736l41.656,187.432    c1.873,8.337-3.367,16.615-11.704,18.488s-16.615-3.367-18.488-11.704l-35.848-157.728c-0.972-4.31-5.254-7.016-9.564-6.044    c-3.012,0.679-5.365,3.032-6.044,6.044L84.341,451.952c-1.873,8.337-10.151,13.577-18.488,11.704s-13.577-10.151-11.704-18.488    l41.656-187.432c0.128-0.57,0.192-1.152,0.192-1.736v-64c-0.002-2.81-1.478-5.412-3.888-6.856l-36.96-22.184L27.661,25.6    c-0.805-4.344,2.063-8.519,6.407-9.324c4.115-0.763,8.122,1.774,9.193,5.82l28.968,115.88c0.664,2.653,2.637,4.783,5.232,5.648    l48,16c1.643,0.552,3.421,0.552,5.064,0l48-16c2.595-0.865,4.568-2.995,5.232-5.648l28.968-115.92    c1.13-4.271,5.508-6.818,9.779-5.689C226.551,17.437,229.088,21.445,228.325,25.56z M384.189,257.736l41.648,187.432    c1.873,8.337-3.367,16.615-11.704,18.488c-8.337,1.873-16.615-3.367-18.488-11.704l-35.848-157.728    c-0.982-4.308-5.27-7.004-9.578-6.022c-2.998,0.683-5.339,3.024-6.022,6.022l-35.848,157.728    c-1.873,8.337-10.151,13.577-18.488,11.704c-8.337-1.873-13.577-10.151-11.704-18.488l41.648-187.432    c0.128-0.57,0.192-1.152,0.192-1.736v-64c-0.001-2.808-1.473-5.41-3.88-6.856l-36.968-22.184L251.669,25.6    c-0.757-4.353,2.158-8.495,6.511-9.252c4.055-0.705,7.983,1.782,9.081,5.748l28.976,115.84c0.664,2.653,2.637,4.784,5.232,5.648    l48,16c1.64,0.552,3.416,0.552,5.056,0l48-16c2.595-0.865,4.568-2.995,5.232-5.648l28.976-115.88    c1.13-4.271,5.508-6.818,9.779-5.689c4.046,1.07,6.584,5.078,5.82,9.193l-27.496,137.4l-36.968,22.184    c-2.404,1.448-3.873,4.05-3.872,6.856v64C383.997,256.584,384.061,257.166,384.189,257.736z" fill="#458219"/>
	</g>
</g>
<g>
	<g>
		<path d="M127.997,48c-22.091,0-40,17.909-40,40s17.909,40,40,40c22.08-0.026,39.974-17.92,40-40    C167.997,65.909,150.089,48,127.997,48z M127.997,112c-13.255,0-24-10.745-24-24s10.745-24,24-24s24,10.745,24,24    S141.252,112,127.997,112z" fill="#458219"/>
	</g>
</g>
<g>
</g>
<g>
</g>
<g>
</g>
<g>
</g>
<g>
</g>
<g>
</g>
<g>
</g>
<g>
</g>
<g>
</g>
<g>
</g>
<g>
</g>
<g>
</g>
<g>
</g>
<g>
</g>
<g>
</g>
</svg>
