<?xml version="1.0" encoding="iso-8859-1"?>
<!-- Generator: Adobe Illustrator 19.0.0, SVG Export Plug-In . SVG Version: 6.00 Build 0)  -->
<svg version="1.1" id="Capa_1" xmlns="http://www.w3.org/2000/svg" xmlns:xlink="http://www.w3.org/1999/xlink" x="0px" y="0px"
	 viewBox="0 0 512 512" style="enable-background:new 0 0 512 512;" xml:space="preserve">
<path style="fill:#D7875F;" d="M268.589,96.837h-77.81c-4.255,0-8.396,1.319-11.878,3.77l-50.396,35.624
	c-6.233,4.409-11.147,10.25-14.443,16.895H71.855v132.296h23.696c4.761,0,8.712,3.73,8.925,8.486
	c0.488,10.891,2.39,22.186,9.482,22.186h235.468V153.137L268.589,96.837z"/>
<path style="fill:#B05A3D;" d="M120.836,268.497c-0.213-4.756-4.165-8.486-8.925-8.486H71.855v25.411h23.696
	c4.761,0,8.712,3.73,8.925,8.486c0.488,10.891,2.39,22.186,9.482,22.186h235.468v-25.411H130.318
	C123.225,290.683,121.323,279.389,120.836,268.497z"/>
<path style="fill:#75DC5E;" d="M512,313.421h-60.316c-6.375,0-11.543-5.168-11.543-11.543V136.675
	c0-6.375,5.168-11.543,11.543-11.543H512V313.421z"/>
<path style="fill:#2AAD52;" d="M440.141,274.579v27.3c0,6.375,5.168,11.543,11.543,11.543H512v-27.3h-60.316
	C445.309,286.121,440.141,280.954,440.141,274.579z"/>
<path style="fill:#2BB4F3;" d="M0,313.421h60.316c6.375,0,11.543-5.168,11.543-11.543V136.675c0-6.375-5.168-11.543-11.543-11.543H0
	V313.421z"/>
<path style="fill:#1687C4;" d="M71.859,274.579v27.3c0,6.375-5.168,11.543-11.543,11.543H0v-27.3h60.316
	C66.691,286.121,71.859,280.954,71.859,274.579z"/>
<path style="fill:#F2A077;" d="M440.137,153.134H312.692c-8.484-3.732-17.311-7.11-26.16-9.741L122.69,292.282
	c-9.176,8.541-9.673,22.894-1.134,32.055c5.238,5.628,12.681,7.986,19.769,6.993c4.447-0.623,8.753-2.559,12.286-5.859l-4.073,3.802
	c-9.176,8.54-9.687,22.895-1.134,32.055c8.541,9.176,22.893,9.672,32.055,1.134l11.432-10.642
	c-9.176,8.541-9.673,22.894-1.134,32.055c8.541,9.176,22.893,9.672,32.055,1.134l9.802-9.125
	c-9.176,8.541-9.686,22.896-1.134,32.055c8.541,9.176,22.894,9.672,32.055,1.134L396.767,285.42h43.37V153.134z"/>
<path style="fill:#D6774D;" d="M383.399,260.011L243.276,392.246c-4.814,4.487-11.059,6.454-17.144,6.003
	c0.921,3.51,2.697,6.85,5.349,9.69c8.54,9.176,22.893,9.673,32.055,1.134L396.767,285.42h43.37v-25.409L383.399,260.011
	L383.399,260.011z"/>
<path style="fill:#D7875F;" d="M371.018,168.182l-21.61-15.057L268.594,96.84h-77.811c-4.252,0-8.406,1.319-11.872,3.775
	l-50.406,35.615c-9.705,6.862-16.238,17.188-18.399,28.662l53.505,90.205l98.892-90.254l44.764,29.763
	c19.772,13.233,46.518,8.251,60.186-11.24l4.982-7.101C374.274,173.641,373.642,170.02,371.018,168.182z"/>
<g>
</g>
<g>
</g>
<g>
</g>
<g>
</g>
<g>
</g>
<g>
</g>
<g>
</g>
<g>
</g>
<g>
</g>
<g>
</g>
<g>
</g>
<g>
</g>
<g>
</g>
<g>
</g>
<g>
</g>
</svg>
