<?xml version="1.0" encoding="iso-8859-1"?>
<!-- Generator: Adobe Illustrator 18.0.0, SVG Export Plug-In . SVG Version: 6.00 Build 0)  -->
<!DOCTYPE svg PUBLIC "-//W3C//DTD SVG 1.1//EN" "http://www.w3.org/Graphics/SVG/1.1/DTD/svg11.dtd">
<svg xmlns="http://www.w3.org/2000/svg" xmlns:xlink="http://www.w3.org/1999/xlink" version="1.1" id="Capa_1" x="0px" y="0px" viewBox="0 0 58 58" style="enable-background:new 0 0 58 58;" xml:space="preserve" width="512px" height="512px">
<g>
	<path d="M56.688,42.863l-1.444-0.277c-0.677-0.13-1.21-0.573-1.462-1.216c-0.253-0.642-0.163-1.329,0.245-1.885l0.907-1.236   c0.292-0.398,0.25-0.95-0.1-1.299l-1.959-1.958c-0.339-0.339-0.871-0.388-1.268-0.121l-1.217,0.824   c-0.331,0.224-0.71,0.343-1.099,0.343c-0.844,0-1.787-0.576-1.956-1.676l-0.233-1.515C47.028,32.36,46.608,32,46.115,32h-2.77   c-0.479,0-0.892,0.341-0.982,0.812l-0.358,1.865c-0.201,1.051-1.13,1.601-1.942,1.601c-0.389,0-0.769-0.118-1.099-0.342   l-1.572-1.064c-0.397-0.267-0.928-0.218-1.268,0.121l-1.959,1.958c-0.35,0.349-0.392,0.9-0.1,1.299l0.907,1.236   c0.408,0.556,0.498,1.243,0.245,1.885c-0.252,0.643-0.785,1.086-1.462,1.216l-1.444,0.277c-0.471,0.091-0.812,0.503-0.812,0.982   v2.77c0,0.493,0.36,0.913,0.848,0.988l1.515,0.233c0.683,0.105,1.232,0.528,1.508,1.16c0.276,0.633,0.212,1.323-0.175,1.895   l-0.824,1.217c-0.269,0.396-0.218,0.929,0.121,1.268l1.958,1.959c0.348,0.348,0.898,0.391,1.299,0.1l1.236-0.907   c0.342-0.252,0.742-0.385,1.156-0.385c0.813,0,1.742,0.551,1.944,1.602l0.277,1.444C42.454,57.659,42.866,58,43.346,58h2.77   c0.493,0,0.913-0.36,0.988-0.848l0.164-1.065c0.169-1.1,1.113-1.676,1.958-1.676c0.413,0,0.813,0.134,1.156,0.386l0.869,0.638   c0.399,0.293,0.951,0.25,1.299-0.1l1.958-1.959c0.339-0.339,0.39-0.871,0.121-1.268l-0.824-1.217   c-0.387-0.571-0.451-1.262-0.175-1.895c0.275-0.632,0.825-1.055,1.508-1.16l1.515-0.233c0.487-0.075,0.848-0.495,0.848-0.988v-2.77   C57.5,43.366,57.159,42.954,56.688,42.863z M55.5,45.758l-0.667,0.103c-1.354,0.208-2.489,1.082-3.036,2.337   c-0.548,1.256-0.416,2.682,0.352,3.815l0.361,0.533l-0.768,0.768l-0.177-0.13c-0.689-0.505-1.498-0.772-2.34-0.772   c-1.979,0-3.635,1.418-3.935,3.371L45.258,56h-1.086l-0.121-0.633c-0.359-1.868-2.004-3.225-3.909-3.225   c-0.843,0-1.651,0.268-2.34,0.771l-0.544,0.399l-0.768-0.768l0.361-0.533c0.768-1.134,0.899-2.56,0.352-3.815   c-0.547-1.255-1.683-2.129-3.036-2.337L33.5,45.758v-1.086l0.633-0.121c1.346-0.259,2.447-1.175,2.947-2.449   c0.5-1.275,0.315-2.695-0.494-3.8l-0.399-0.544l0.768-0.768l0.889,0.602c0.662,0.448,1.43,0.686,2.22,0.686   c1.905,0,3.548-1.355,3.907-3.224L44.172,34h1.086l0.103,0.667c0.301,1.953,1.955,3.371,3.934,3.371   c0.789,0,1.556-0.237,2.219-0.687l0.533-0.361l0.768,0.768l-0.399,0.544c-0.81,1.104-0.994,2.524-0.494,3.8   c0.5,1.274,1.602,2.19,2.947,2.449l0.633,0.121V45.758z" fill="#FFDA44"/>
	<path d="M44.5,40c-2.757,0-5,2.243-5,5s2.243,5,5,5s5-2.243,5-5S47.257,40,44.5,40z M44.5,48c-1.654,0-3-1.346-3-3s1.346-3,3-3   s3,1.346,3,3S46.154,48,44.5,48z" fill="#FFDA44"/>
	<path d="M31.801,50.554l-2.453-0.377c-0.487-0.075-0.848-0.495-0.848-0.988v-7.821c0-0.479,0.341-0.892,0.812-0.982l2.28-0.438   l-1.469-2c-0.292-0.398-0.25-0.95,0.1-1.299l5.532-5.529c0.34-0.338,0.87-0.389,1.268-0.121l0.391,0.265   c0.044-0.121,0.096-0.238,0.139-0.36c1.267-0.602,2.085-1.864,2.085-3.289v-3.545c0-0.867-0.318-1.708-0.887-2.369v-4.667   c0.052-0.52,0.236-3.448-1.883-5.864C35.024,9.065,32.041,8,28,8s-7.024,1.065-8.867,3.168c-2.119,2.416-1.935,5.346-1.883,5.864   v4.667c-0.568,0.661-0.887,1.502-0.887,2.369v3.545c0,1.101,0.494,2.128,1.34,2.821c0.81,3.173,2.477,5.575,3.093,6.389v2.894   c0,0.816-0.445,1.566-1.162,1.958l-7.907,4.313c-0.252,0.137-0.502,0.297-0.752,0.476C5.776,41.792,2.5,35.022,2.5,27.5   C2.5,13.439,13.939,2,28,2s25.5,11.439,25.5,25.5c0,1.227-0.096,2.432-0.265,3.613c0.003,0.002,0.006,0.003,0.009,0.006   l1.726,1.724c0.342-1.73,0.53-3.515,0.53-5.344C55.5,12.337,43.163,0,28,0S0.5,12.337,0.5,27.5c0,8.009,3.444,15.228,8.926,20.258   l-0.026,0.023l0.892,0.752c0.058,0.049,0.121,0.089,0.178,0.137c0.474,0.393,0.965,0.766,1.465,1.127   c0.162,0.117,0.324,0.235,0.489,0.348c0.534,0.368,1.082,0.717,1.642,1.048c0.122,0.072,0.245,0.142,0.368,0.212   c0.613,0.349,1.239,0.678,1.88,0.98c0.047,0.022,0.094,0.042,0.142,0.064c2.089,0.971,4.319,1.684,6.651,2.105   c0.061,0.011,0.122,0.022,0.184,0.033c0.724,0.125,1.456,0.225,2.197,0.292c0.09,0.008,0.181,0.013,0.271,0.021   C26.498,54.961,27.244,55,28,55c0.749,0,1.489-0.039,2.222-0.098c0.093-0.008,0.186-0.013,0.279-0.021   c0.374-0.034,0.739-0.097,1.108-0.146l-0.99-0.991c-0.339-0.339-0.39-0.871-0.121-1.268L31.801,50.554z" fill="#FFDA44"/>
</g>
<g>
</g>
<g>
</g>
<g>
</g>
<g>
</g>
<g>
</g>
<g>
</g>
<g>
</g>
<g>
</g>
<g>
</g>
<g>
</g>
<g>
</g>
<g>
</g>
<g>
</g>
<g>
</g>
<g>
</g>
</svg>
